<?xml version="1.0" encoding="UTF-8" standalone="no"?>
<svg
   xmlns:dc="http://purl.org/dc/elements/1.1/"
   xmlns:cc="http://creativecommons.org/ns#"
   xmlns:rdf="http://www.w3.org/1999/02/22-rdf-syntax-ns#"
   xmlns:svg="http://www.w3.org/2000/svg"
   xmlns="http://www.w3.org/2000/svg"
   xmlns:sodipodi="http://sodipodi.sourceforge.net/DTD/sodipodi-0.dtd"
   xmlns:inkscape="http://www.inkscape.org/namespaces/inkscape"
   version="1.1"
   x="0px"
   y="0px"
   viewBox="0 0 68 34"
   enable-background="new 0 0 100 100"
   xml:space="preserve"
   id="svg2"
   inkscape:version="0.91 r13725"
   sodipodi:docname="backward.svg"
   width="68"
   height="34"><metadata
     id="metadata14"><rdf:RDF><cc:Work
         rdf:about=""><dc:format>image/svg+xml</dc:format><dc:type
           rdf:resource="http://purl.org/dc/dcmitype/StillImage" /><dc:title /></cc:Work></rdf:RDF></metadata><defs
     id="defs12" /><sodipodi:namedview
     pagecolor="#ffffff"
     bordercolor="#666666"
     borderopacity="1"
     objecttolerance="10"
     gridtolerance="10"
     guidetolerance="10"
     inkscape:pageopacity="0"
     inkscape:pageshadow="2"
     inkscape:window-width="1231"
     inkscape:window-height="776"
     id="namedview10"
     showgrid="false"
     inkscape:zoom="1.888"
     inkscape:cx="-38.983051"
     inkscape:cy="62.5"
     inkscape:window-x="49"
     inkscape:window-y="24"
     inkscape:window-maximized="1"
     inkscape:current-layer="svg2" /><g
     id="g3342"
     transform="matrix(0.39499059,0,0,0.39499059,-2.8893562,-2.7495295)"><path
       id="path4"
       d="M 50.354,6.961 C 26.585,6.961 7.315,26.23 7.315,50 7.315,73.77 26.584,93.039 50.354,93.039 74.124,93.039 93.393,73.77 93.393,50 93.394,26.23 74.124,6.961 50.354,6.961 Z M 71.175,64.29 C 68.537,65.405 51.421,56.683 48.794,50.919 48.623,57.371 47.423,63.359 45.222,64.29 42.363,65.499 22.864,55.153 22.864,49.541 c 0,-5.862 20.019,-17.212 22.358,-15.748 2.269,1.42 3.452,7.753 3.582,14.295 2.698,-6.091 20.212,-15.646 22.371,-14.295 4.847,3.033 4.739,28.493 0,30.497 z"
       inkscape:connector-curvature="0"
       style="fill:#000000" /></g><g
     transform="matrix(0.39499059,0,0,0.39499059,31.110644,-2.7495295)"
     id="g3334"><path
       style="fill:#000000"
       inkscape:connector-curvature="0"
       d="M 50.354,6.961 C 26.585,6.961 7.315,26.23 7.315,50 7.315,73.77 26.584,93.039 50.354,93.039 74.124,93.039 93.393,73.77 93.393,50 93.394,26.23 74.124,6.961 50.354,6.961 Z M 71.175,64.29 C 68.537,65.405 51.421,56.683 48.794,50.919 48.623,57.371 47.423,63.359 45.222,64.29 42.363,65.499 22.864,55.153 22.864,49.541 c 0,-5.862 20.019,-17.212 22.358,-15.748 2.269,1.42 3.452,7.753 3.582,14.295 2.698,-6.091 20.212,-15.646 22.371,-14.295 4.847,3.033 4.739,28.493 0,30.497 z"
       id="path3336" /></g></svg>