<?xml version="1.0" encoding="UTF-8" standalone="no"?>
<!-- Created with Inkscape (http://www.inkscape.org/) -->

<svg
   xmlns:dc="http://purl.org/dc/elements/1.1/"
   xmlns:cc="http://creativecommons.org/ns#"
   xmlns:rdf="http://www.w3.org/1999/02/22-rdf-syntax-ns#"
   xmlns:svg="http://www.w3.org/2000/svg"
   xmlns="http://www.w3.org/2000/svg"
   xmlns:sodipodi="http://sodipodi.sourceforge.net/DTD/sodipodi-0.dtd"
   xmlns:inkscape="http://www.inkscape.org/namespaces/inkscape"
   width="210mm"
   height="297mm"
   viewBox="0 0 744.09448819 1052.3622047"
   id="svg4019"
   version="1.1"
   inkscape:version="0.91 r13725"
   sodipodi:docname="drawing.svg">
  <defs
     id="defs4021" />
  <sodipodi:namedview
     id="base"
     pagecolor="#ffffff"
     bordercolor="#666666"
     borderopacity="1.0"
     inkscape:pageopacity="0.0"
     inkscape:pageshadow="2"
     inkscape:zoom="3.0364233"
     inkscape:cx="372.04688"
     inkscape:cy="526.18056"
     inkscape:document-units="px"
     inkscape:current-layer="layer1"
     showgrid="false"
     inkscape:window-width="1231"
     inkscape:window-height="776"
     inkscape:window-x="49"
     inkscape:window-y="24"
     inkscape:window-maximized="1" />
  <metadata
     id="metadata4024">
    <rdf:RDF>
      <cc:Work
         rdf:about="">
        <dc:format>image/svg+xml</dc:format>
        <dc:type
           rdf:resource="http://purl.org/dc/dcmitype/StillImage" />
        <dc:title></dc:title>
      </cc:Work>
    </rdf:RDF>
  </metadata>
  <g
     inkscape:label="Layer 1"
     inkscape:groupmode="layer"
     id="layer1">
    <path
       style="opacity:1;fill:#0000ff;fill-opacity:1;stroke:none;stroke-width:0.35433072;stroke-linecap:round;stroke-linejoin:round;stroke-miterlimit:4;stroke-dasharray:none;stroke-dashoffset:0;stroke-opacity:1"
       d="M 373.29688 426.22852 L 373.29688 436.25586 A 90 90 0 0 1 394.07617 439.13281 L 396.64258 429.5625 A 100 100 0 0 0 373.29688 426.22852 z M 370.79688 426.24414 A 100 100 0 0 0 347.41992 429.44336 L 349.98242 439.00391 A 90 90 0 0 1 370.79688 436.21875 L 370.79688 426.24414 z M 345.00781 430.09375 A 100 100 0 0 0 323.27734 439.20898 L 328.24805 447.81641 A 90 90 0 0 1 347.57812 439.6875 L 345.00781 430.09375 z M 399.05273 430.22266 L 396.49805 439.76367 A 90 90 0 0 1 415.86523 447.78516 L 420.78125 439.26953 A 100 100 0 0 0 399.05273 430.22266 z M 321.11328 440.46094 A 100 100 0 0 0 302.48438 454.84961 L 309.45703 461.82227 A 90 90 0 0 1 326.05859 449.0293 L 321.11328 440.46094 z M 422.94336 440.52539 L 417.99219 449.09961 A 90 90 0 0 1 434.64258 461.81641 L 441.62695 454.83203 A 100 100 0 0 0 422.94336 440.52539 z M 443.39453 456.60156 L 436.4707 463.52539 A 90 90 0 0 1 449.22656 480.17969 L 457.7832 475.23828 A 100 100 0 0 0 443.39453 456.60156 z M 300.71484 456.61719 A 100 100 0 0 0 286.41602 475.29883 L 294.99414 480.25 A 90 90 0 0 1 307.72266 463.625 L 300.71484 456.61719 z M 459.0332 477.4043 L 450.46875 482.34961 A 90 90 0 0 1 458.5918 501.69727 L 468.14258 499.13867 A 100 100 0 0 0 459.0332 477.4043 z M 285.16016 477.46094 A 100 100 0 0 0 276.11719 499.18164 L 285.69531 501.74805 A 90 90 0 0 1 293.6875 482.38281 L 285.16016 477.46094 z M 468.79102 501.55273 L 459.18555 504.12695 A 90 90 0 0 1 462.00195 524.93164 L 471.98438 524.93164 A 100 100 0 0 0 468.79102 501.55273 z M 275.45508 501.59375 A 100 100 0 0 0 272.0918 524.93164 L 282.10938 524.93164 A 90 90 0 0 1 285.0332 504.16016 L 275.45508 501.59375 z M 272.10938 527.43164 A 100 100 0 0 0 275.30273 550.81055 L 284.9082 548.23633 A 90 90 0 0 1 282.0918 527.43164 L 272.10938 527.43164 z M 461.98438 527.43164 A 90 90 0 0 1 459.06055 548.20312 L 468.64062 550.76953 A 100 100 0 0 0 472.00195 527.43164 L 461.98438 527.43164 z M 458.39844 550.61328 A 90 90 0 0 1 450.40625 569.97852 L 458.93555 574.90234 A 100 100 0 0 0 467.97852 553.17969 L 458.39844 550.61328 z M 285.5 550.66406 L 275.95117 553.22461 A 100 100 0 0 0 285.06055 574.95898 L 293.625 570.01562 A 90 90 0 0 1 285.5 550.66406 z M 449.10156 572.10938 A 90 90 0 0 1 436.37109 588.73633 L 443.37891 595.74609 A 100 100 0 0 0 457.67969 577.0625 L 449.10156 572.10938 z M 294.86719 572.18359 L 286.31055 577.12305 A 100 100 0 0 0 300.69922 595.76172 L 307.62305 588.83789 A 90 90 0 0 1 294.86719 572.18359 z M 434.63672 590.53906 A 90 90 0 0 1 418.03516 603.33203 L 422.98242 611.90234 A 100 100 0 0 0 441.60938 597.51172 L 434.63672 590.53906 z M 309.44922 590.54688 L 302.4668 597.5293 A 100 100 0 0 0 321.15039 611.83594 L 326.09961 603.26172 A 90 90 0 0 1 309.44922 590.54688 z M 415.8457 604.54492 A 90 90 0 0 1 396.51758 612.67383 L 399.08789 622.26953 A 100 100 0 0 0 420.81641 613.1543 L 415.8457 604.54492 z M 328.22852 604.57812 L 323.3125 613.0918 A 100 100 0 0 0 345.04102 622.14062 L 347.59766 612.60156 A 90 90 0 0 1 328.22852 604.57812 z M 350.01562 613.23047 L 347.45117 622.80078 A 100 100 0 0 0 370.79688 626.13477 L 370.79688 616.10742 A 90 90 0 0 1 350.01562 613.23047 z M 394.11133 613.35742 A 90 90 0 0 1 373.29688 616.14453 L 373.29688 626.11914 A 100 100 0 0 0 396.67383 622.91992 L 394.11133 613.35742 z "
       id="path4027" />
  </g>
</svg>
