<?xml version="1.0" encoding="UTF-8" standalone="no"?>
<svg
   xmlns:dc="http://purl.org/dc/elements/1.1/"
   xmlns:cc="http://creativecommons.org/ns#"
   xmlns:rdf="http://www.w3.org/1999/02/22-rdf-syntax-ns#"
   xmlns:svg="http://www.w3.org/2000/svg"
   xmlns="http://www.w3.org/2000/svg"
   xmlns:sodipodi="http://sodipodi.sourceforge.net/DTD/sodipodi-0.dtd"
   xmlns:inkscape="http://www.inkscape.org/namespaces/inkscape"
   version="1.1"
   x="0px"
   y="0px"
   viewBox="0 0 68 34"
   enable-background="new 0 0 100 100"
   xml:space="preserve"
   id="svg2"
   inkscape:version="0.91 r13725"
   sodipodi:docname="information.svg"
   width="68"
   height="34"><metadata
     id="metadata10"><rdf:RDF><cc:Work
         rdf:about=""><dc:format>image/svg+xml</dc:format><dc:type
           rdf:resource="http://purl.org/dc/dcmitype/StillImage" /><dc:title /></cc:Work></rdf:RDF></metadata><defs
     id="defs8" /><sodipodi:namedview
     pagecolor="#ffffff"
     bordercolor="#666666"
     borderopacity="1"
     objecttolerance="10"
     gridtolerance="10"
     guidetolerance="10"
     inkscape:pageopacity="0"
     inkscape:pageshadow="2"
     inkscape:window-width="1231"
     inkscape:window-height="776"
     id="namedview6"
     showgrid="false"
     inkscape:zoom="15.661765"
     inkscape:cx="26.146479"
     inkscape:cy="17"
     inkscape:window-x="49"
     inkscape:window-y="24"
     inkscape:window-maximized="1"
     inkscape:current-layer="svg2" /><circle
     style="fill:#808080;fill-rule:evenodd;stroke:none;stroke-width:1px;stroke-linecap:butt;stroke-linejoin:miter;stroke-opacity:1"
     id="path3337"
     cx="17"
     cy="17"
     r="13.344601" /><g
     id="g3338"
     transform="translate(-5,5)"><path
       inkscape:connector-curvature="0"
       id="path4"
       d="M 22,-5 C 12.593333,-5 5,2.593333 5,12 5,21.406667 12.593333,29 22,29 31.406667,29 39,21.406667 39,12 39,2.593333 31.406667,-5 22,-5 l 0,0 z m 2.682222,26.444444 c 0,0.831112 -0.717778,1.548889 -1.548889,1.548889 l -2.342222,0 c -0.831111,0 -1.548889,-0.717777 -1.548889,-1.548889 l 0,-9.897777 c 0,-0.868889 0.717778,-1.548889 1.548889,-1.548889 l 2.342222,0 c 0.831111,0 1.548889,0.717778 1.548889,1.548889 l 0,9.897777 z m -2.72,-14.015555 c -1.737778,0 -3.173333,-1.435556 -3.173333,-3.211111 0,-1.775556 1.435555,-3.211111 3.173333,-3.211111 1.775556,0 3.211111,1.435555 3.211111,3.211111 0,1.775555 -1.435555,3.211111 -3.211111,3.211111 z" /></g><circle
     r="13.344601"
     cy="17"
     cx="51"
     id="circle3339"
     style="fill:#00ff00;fill-rule:evenodd;stroke:none;stroke-width:1px;stroke-linecap:butt;stroke-linejoin:miter;stroke-opacity:1" /><g
     transform="translate(29,5)"
     id="g3334"><path
       d="M 22,-5 C 12.593333,-5 5,2.593333 5,12 5,21.406667 12.593333,29 22,29 31.406667,29 39,21.406667 39,12 39,2.593333 31.406667,-5 22,-5 l 0,0 z m 2.682222,26.444444 c 0,0.831112 -0.717778,1.548889 -1.548889,1.548889 l -2.342222,0 c -0.831111,0 -1.548889,-0.717777 -1.548889,-1.548889 l 0,-9.897777 c 0,-0.868889 0.717778,-1.548889 1.548889,-1.548889 l 2.342222,0 c 0.831111,0 1.548889,0.717778 1.548889,1.548889 l 0,9.897777 z m -2.72,-14.015555 c -1.737778,0 -3.173333,-1.435556 -3.173333,-3.211111 0,-1.775556 1.435555,-3.211111 3.173333,-3.211111 1.775556,0 3.211111,1.435555 3.211111,3.211111 0,1.775555 -1.435555,3.211111 -3.211111,3.211111 z"
       id="path3336"
       inkscape:connector-curvature="0" /></g></svg>