<?xml version="1.0" encoding="UTF-8" standalone="no"?>
<!-- Created with Inkscape (http://www.inkscape.org/) -->

<svg
   xmlns:dc="http://purl.org/dc/elements/1.1/"
   xmlns:cc="http://creativecommons.org/ns#"
   xmlns:rdf="http://www.w3.org/1999/02/22-rdf-syntax-ns#"
   xmlns:svg="http://www.w3.org/2000/svg"
   xmlns="http://www.w3.org/2000/svg"
   xmlns:sodipodi="http://sodipodi.sourceforge.net/DTD/sodipodi-0.dtd"
   xmlns:inkscape="http://www.inkscape.org/namespaces/inkscape"
   width="120"
   height="40"
   id="svg2"
   version="1.1"
   inkscape:version="0.91 r13725"
   sodipodi:docname="joystick.svg"
   inkscape:export-filename="/home/mex/Development/xC/Mark_I/xc/images/joystick.png"
   inkscape:export-xdpi="90"
   inkscape:export-ydpi="90">
  <defs
     id="defs4" />
  <sodipodi:namedview
     id="base"
     pagecolor="#ffffff"
     bordercolor="#666666"
     borderopacity="1.0"
     inkscape:pageopacity="0.0"
     inkscape:pageshadow="2"
     inkscape:zoom="4.9834454"
     inkscape:cx="50.672686"
     inkscape:cy="16.21829"
     inkscape:document-units="px"
     inkscape:current-layer="layer1"
     showgrid="false"
     inkscape:window-width="1317"
     inkscape:window-height="744"
     inkscape:window-x="49"
     inkscape:window-y="261"
     inkscape:window-maximized="1" />
  <metadata
     id="metadata7">
    <rdf:RDF>
      <cc:Work
         rdf:about="">
        <dc:format>image/svg+xml</dc:format>
        <dc:type
           rdf:resource="http://purl.org/dc/dcmitype/StillImage" />
        <dc:title></dc:title>
      </cc:Work>
    </rdf:RDF>
  </metadata>
  <g
     inkscape:label="Layer 1"
     inkscape:groupmode="layer"
     id="layer1"
     transform="translate(0,-1012.3622)">
    <rect
       y="1012.8622"
       x="60.5"
       height="39"
       width="59"
       id="rect4141"
       style="color:#000000;clip-rule:nonzero;display:inline;overflow:visible;visibility:visible;opacity:1;isolation:auto;mix-blend-mode:normal;color-interpolation:sRGB;color-interpolation-filters:linearRGB;solid-color:#000000;solid-opacity:1;fill:none;fill-opacity:1;fill-rule:nonzero;stroke:#808080;stroke-width:1;stroke-linecap:butt;stroke-linejoin:miter;stroke-miterlimit:4;stroke-dasharray:none;stroke-dashoffset:0;stroke-opacity:1;color-rendering:auto;image-rendering:auto;shape-rendering:auto;text-rendering:auto;enable-background:accumulate" />
    <rect
       style="color:#000000;clip-rule:nonzero;display:inline;overflow:visible;visibility:visible;opacity:1;isolation:auto;mix-blend-mode:normal;color-interpolation:sRGB;color-interpolation-filters:linearRGB;solid-color:#000000;solid-opacity:1;fill:none;fill-opacity:1;fill-rule:nonzero;stroke:#808080;stroke-width:1;stroke-linecap:butt;stroke-linejoin:miter;stroke-miterlimit:4;stroke-dasharray:none;stroke-dashoffset:0;stroke-opacity:1;color-rendering:auto;image-rendering:auto;shape-rendering:auto;text-rendering:auto;enable-background:accumulate"
       id="rect3337"
       width="59"
       height="39"
       x="0.5"
       y="1012.8622" />
    <rect
       style="fill:#1a1a1a;fill-opacity:1;stroke:none;stroke-width:1.8;stroke-miterlimit:4;stroke-dasharray:none"
       id="rect2984"
       width="40.564499"
       height="16.211559"
       x="9.7338638"
       y="1021.4608" />
    <path
       style="fill:#1a1a1a;stroke:#808080;stroke-width:1.8;stroke-miterlimit:4;stroke-dasharray:none"
       d="m 8.455275,1046.6055 c -1.6470086,-0.2703 -3.4405036,-1.5007 -4.1196657,-2.8261 -0.2027439,-0.3959 -0.4759053,-1.2256 -0.6070479,-1.844 -0.3448705,-1.6266 -0.2148485,-5.337 0.2654853,-7.5763 1.6623607,-7.7498 5.6473297,-13.9212 10.1587513,-15.7327 2.63613,-1.0583 4.799266,-0.7694 9.336876,1.2473 2.983949,1.3262 4.009878,1.5741 6.514444,1.5741 2.487272,0 3.531809,-0.2497 6.444394,-1.5406 4.640621,-2.057 6.75149,-2.3384 9.459208,-1.2612 5.593152,2.2252 10.57007,11.8785 10.59015,20.5412 0.007,2.967 -0.53811,4.7167 -1.828589,5.8703 -2.18548,1.9534 -4.930693,2.2106 -8.079474,0.7563 -2.06559,-0.954 -3.750947,-2.3095 -6.607883,-5.3145 -1.11295,-1.1707 -1.455641,-1.4409 -2.402101,-1.8936 -1.641642,-0.7851 -2.294031,-0.8495 -8.082982,-0.7976 -4.821111,0.044 -5.0637,0.057 -5.937109,0.3524 -1.40739,0.4752 -2.283508,1.1062 -4.483066,3.2293 -1.117248,1.0783 -2.560608,2.3381 -3.207433,2.7993 -2.630818,1.876 -5.335603,2.7576 -7.413958,2.4164 z m 35.412085,-10.9632 c 0.727422,-0.3546 1.157025,-0.9638 1.23641,-1.7533 0.08585,-0.8537 -0.02772,-1.2308 -0.538272,-1.7865 -1.148928,-1.2504 -3.082638,-1.0616 -3.932942,0.3843 -0.524601,0.8919 -0.347334,2.1509 0.389735,2.7678 0.817007,0.6839 1.927209,0.8352 2.845069,0.3877 z m -25.678687,-0.2851 c 0.602174,-0.5305 0.747901,-1.0486 0.747901,-2.6591 l 0,-1.4769 1.545548,0 c 1.685149,0 2.227336,-0.1394 2.782511,-0.7147 0.463508,-0.4805 0.551005,-1.4761 0.179332,-2.0406 -0.449754,-0.6833 -1.03808,-0.8595 -2.868374,-0.8595 l -1.610877,0 -0.05089,-1.707 c -0.0416,-1.3961 -0.09899,-1.7753 -0.315057,-2.082 -0.740507,-1.0514 -2.476341,-1.0073 -3.170242,0.081 -0.23185,0.3634 -0.273545,0.6782 -0.273999,2.0686 l -5.6e-4,1.64 -1.688097,0 c -1.834876,0 -2.257895,0.1143 -2.782588,0.7518 -0.378744,0.4601 -0.392529,1.4328 -0.0284,2.0036 0.435746,0.6829 1.026383,0.8594 2.874115,0.8594 l 1.624948,0 0,1.6133 c 0,1.8155 0.138842,2.2379 0.882405,2.6844 0.6081,0.3651 1.642687,0.2874 2.152274,-0.1616 z m 20.854904,-4.3713 c 0.93662,-0.4848 1.488824,-1.668 1.203366,-2.5785 -0.204633,-0.6526 -0.84524,-1.3781 -1.416872,-1.6043 -0.612481,-0.2424 -1.82376,-0.1117 -2.362546,0.2547 -0.907045,0.6173 -1.255268,1.9347 -0.769823,2.9123 0.56662,1.1411 2.165676,1.6266 3.345875,1.0158 z m 10.050881,-0.1918 c 0.500668,-0.3406 0.936029,-1.2025 0.940243,-1.8613 0.0046,-0.7037 -0.547053,-1.606 -1.198246,-1.9601 -2.056263,-1.1184 -4.456215,0.9346 -3.439366,2.942 0.678379,1.3392 2.414789,1.7521 3.697369,0.8794 z m -5.650791,-4.2561 c 0.538141,-0.1475 1.196487,-0.6918 1.493129,-1.2344 0.108699,-0.1988 0.196602,-0.6507 0.195329,-1.0041 -0.0061,-1.7198 -1.896919,-2.83 -3.493859,-2.0514 -1.775871,0.8658 -1.759783,3.2931 0.0274,4.1386 0.661047,0.3127 1.063901,0.347 1.777965,0.1513 z"
       id="path3571"
       inkscape:connector-curvature="0"
       sodipodi:nodetypes="ssssssssssssssssssssssssscscsssscsssccsssscssccsssssssssssssssss" />
    <rect
       y="1021.3869"
       x="69.654106"
       height="16.32119"
       width="40.723984"
       id="rect2986"
       style="fill:#e6e6e6;fill-opacity:1;stroke:none;stroke-width:1.8;stroke-miterlimit:4;stroke-dasharray:none" />
    <path
       sodipodi:nodetypes="ssssssssssssssssssssssssscscsssscsssccsssscssccsssssssssssssssss"
       inkscape:connector-curvature="0"
       id="path3763"
       d="m 68.370484,1046.7016 c -1.653478,-0.272 -3.454027,-1.5107 -4.135858,-2.8452 -0.203546,-0.3985 -0.477782,-1.2338 -0.609434,-1.8565 -0.346233,-1.6374 -0.215691,-5.3729 0.266531,-7.6275 1.668888,-7.8022 5.669531,-14.0153 10.198684,-15.839 2.646495,-1.0655 4.818138,-0.7746 9.373587,1.2558 2.995685,1.3351 4.025643,1.5848 6.540058,1.5848 2.497054,0 3.545697,-0.2516 6.46973,-1.5511 4.658878,-2.0708 6.778038,-2.3542 9.496408,-1.2697 5.61513,2.2402 10.61162,11.9589 10.63177,20.68 0.007,2.9871 -0.54022,4.7487 -1.83577,5.9101 -2.19407,1.9666 -4.95008,2.2255 -8.11124,0.7614 -2.07371,-0.9605 -3.7657,-2.3252 -6.63387,-5.3505 -1.117324,-1.1785 -1.461356,-1.4506 -2.411537,-1.9064 -1.648105,-0.7905 -2.303051,-0.8553 -8.114757,-0.803 -4.840068,0.044 -5.083614,0.057 -5.960456,0.3549 -1.412926,0.4784 -2.292491,1.1136 -4.500692,3.2511 -1.121646,1.0855 -2.570673,2.3537 -3.220042,2.8182 -2.641169,1.8886 -5.356582,2.7762 -7.443112,2.4326 z m 35.551306,-11.0373 c 0.73029,-0.3571 1.16158,-0.9703 1.24129,-1.7651 0.0862,-0.8595 -0.0279,-1.2391 -0.5404,-1.7985 -1.15345,-1.259 -3.09476,-1.0689 -3.9484,0.3868 -0.52667,0.898 -0.34871,2.1655 0.39127,2.7866 0.82021,0.6886 1.93477,0.8408 2.85624,0.3902 z m -25.779639,-0.2869 c 0.604546,-0.5341 0.750843,-1.0559 0.750843,-2.6772 l 0,-1.4869 1.551621,0 c 1.69178,0 2.236092,-0.1402 2.793455,-0.7195 0.465328,-0.4837 0.553174,-1.486 0.180038,-2.0544 -0.451523,-0.6879 -1.04216,-0.8653 -2.879649,-0.8653 l -1.617218,0 -0.05112,-1.7185 c -0.04179,-1.4056 -0.09938,-1.7873 -0.316289,-2.0961 -0.743427,-1.0585 -2.486084,-1.0142 -3.18271,0.081 -0.232762,0.366 -0.274619,0.6828 -0.275076,2.0827 l -5.6e-4,1.6511 -1.694737,0 c -1.842088,0 -2.266773,0.115 -2.793529,0.7568 -0.380235,0.4632 -0.394069,1.4425 -0.02854,2.0172 0.437465,0.6874 1.030415,0.8652 2.885414,0.8652 l 1.631341,0 0,1.6242 c 0,1.8277 0.139385,2.253 0.885872,2.7025 0.610488,0.3675 1.649149,0.2894 2.160737,-0.1627 z m 20.936904,-4.401 c 0.940295,-0.4879 1.494675,-1.6791 1.208095,-2.5958 -0.20544,-0.6571 -0.848559,-1.3874 -1.422443,-1.6152 -0.6149,-0.2441 -1.830941,-0.1125 -2.37183,0.2564 -0.910619,0.6215 -1.26021,1.9478 -0.772858,2.9321 0.568846,1.1487 2.174189,1.6375 3.359036,1.0225 z m 10.090395,-0.1929 c 0.50263,-0.3431 0.9397,-1.2107 0.94395,-1.874 0.005,-0.7085 -0.54922,-1.6169 -1.20297,-1.9734 -2.06435,-1.1259 -4.47373,0.9409 -3.45288,2.9619 0.68103,1.3482 2.42427,1.764 3.7119,0.8855 z m -5.67301,-4.285 c 0.54026,-0.1485 1.20119,-0.6965 1.499,-1.2427 0.10913,-0.2002 0.19737,-0.6552 0.1961,-1.011 -0.007,-1.7314 -1.90438,-2.849 -3.50759,-2.0652 -1.782857,0.8716 -1.766709,3.3154 0.0275,4.1665 0.66365,0.3149 1.06807,0.3494 1.78495,0.1524 z"
       style="fill:#e6e6e6;stroke:#808080;stroke-width:1.8;stroke-miterlimit:4;stroke-dasharray:none"
       inkscape:export-xdpi="90"
       inkscape:export-ydpi="90" />
  </g>
</svg>
