<?xml version="1.0" encoding="UTF-8" standalone="no"?>
<!-- Created with Inkscape (http://www.inkscape.org/) -->

<svg
   xmlns:dc="http://purl.org/dc/elements/1.1/"
   xmlns:cc="http://creativecommons.org/ns#"
   xmlns:rdf="http://www.w3.org/1999/02/22-rdf-syntax-ns#"
   xmlns:svg="http://www.w3.org/2000/svg"
   xmlns="http://www.w3.org/2000/svg"
   xmlns:sodipodi="http://sodipodi.sourceforge.net/DTD/sodipodi-0.dtd"
   xmlns:inkscape="http://www.inkscape.org/namespaces/inkscape"
   width="120"
   height="40"
   id="svg3054"
   version="1.1"
   inkscape:version="0.91 r13725"
   sodipodi:docname="mouse.svg"
   inkscape:export-filename="/home/mex/Development/xC/Mark_I/xc/images/mouse.png"
   inkscape:export-xdpi="90"
   inkscape:export-ydpi="90">
  <defs
     id="defs3056" />
  <sodipodi:namedview
     id="base"
     pagecolor="#ffffff"
     bordercolor="#666666"
     borderopacity="1.0"
     inkscape:pageopacity="0.0"
     inkscape:pageshadow="2"
     inkscape:zoom="2.9752346"
     inkscape:cx="33.662001"
     inkscape:cy="23.461171"
     inkscape:document-units="px"
     inkscape:current-layer="layer1"
     showgrid="false"
     inkscape:window-width="960"
     inkscape:window-height="1028"
     inkscape:window-x="1280"
     inkscape:window-y="24"
     inkscape:window-maximized="0" />
  <metadata
     id="metadata3059">
    <rdf:RDF>
      <cc:Work
         rdf:about="">
        <dc:format>image/svg+xml</dc:format>
        <dc:type
           rdf:resource="http://purl.org/dc/dcmitype/StillImage" />
        <dc:title></dc:title>
      </cc:Work>
    </rdf:RDF>
  </metadata>
  <g
     inkscape:label="Layer 1"
     inkscape:groupmode="layer"
     id="layer1"
     transform="translate(0,-1012.3622)">
    <g
       id="g3358"
       transform="translate(18.50019,-3.1207554)">
      <g
         transform="matrix(0.66257167,0,0,0.64411578,-153.48226,691.95588)"
         id="g3762"
         style="fill:#1a1a1a;stroke:#808080;stroke-width:1.48096454">
        <path
           style="fill:#1a1a1a;stroke:#808080;stroke-width:3.06148148;stroke-miterlimit:4;stroke-dasharray:none;stroke-dashoffset:0"
           d="m 233.20477,518.16677 c 0,-5.94679 9.57948,-9.48836 15.79783,-9.48836 6.21834,0 15.79784,3.54157 15.79784,9.48836 l 0,29.27463 c 0,6.14092 -9.37652,10.54264 -15.79784,10.54264 -6.42133,0 -15.79784,-4.40172 -15.79784,-10.54264 z"
           id="path3764"
           inkscape:connector-curvature="0"
           sodipodi:nodetypes="sassass" />
        <path
           style="fill:#1a1a1a;stroke:#808080;stroke-width:3.06148148;stroke-linecap:butt;stroke-linejoin:miter;stroke-miterlimit:4;stroke-dasharray:none;stroke-opacity:1"
           d="m 233.15555,528.33287 c 0,0 10.51382,2.10853 15.84706,2.10853 5.33322,0 15.84704,-2.10853 15.84704,-2.10853"
           id="path3766"
           inkscape:connector-curvature="0"
           sodipodi:nodetypes="csc" />
        <path
           inkscape:connector-curvature="0"
           style="fill:#1a1a1a;stroke:#808080;stroke-width:3.06148148;stroke-linecap:butt;stroke-linejoin:miter;stroke-miterlimit:4;stroke-dasharray:none;stroke-opacity:1"
           d="m 249.0026,508.30351 0,21.79964"
           id="path3768" />
        <path
           inkscape:connector-curvature="0"
           style="fill:#1a1a1a;stroke:#808080;stroke-width:3.06148148;stroke-miterlimit:4;stroke-dasharray:none;stroke-dashoffset:0"
           d="m 245.64818,515.79095 c 0,-1.45417 1.99095,-2.4965 3.35442,-2.4965 1.36348,0 3.35442,1.04233 3.35442,2.4965 l 0,6.68262 c 0,1.45417 -1.99094,2.4965 -3.35442,2.4965 -1.36347,0 -3.35442,-1.04233 -3.35442,-2.4965 z"
           id="path3770" />
      </g>
    </g>
    <g
       id="g3351"
       transform="translate(55.499803,-3.1207554)">
      <g
         style="fill:#e6e6e6;stroke:#808080;stroke-width:1.48096454"
         id="g2992"
         transform="matrix(0.66257167,0,0,0.64411578,-130.48187,691.95588)">
        <path
           sodipodi:nodetypes="sassass"
           inkscape:connector-curvature="0"
           id="path2994"
           d="m 233.20477,518.16677 c 0,-5.94679 9.57948,-9.48836 15.79783,-9.48836 6.21834,0 15.79784,3.54157 15.79784,9.48836 l 0,29.27463 c 0,6.14092 -9.37652,10.54264 -15.79784,10.54264 -6.42133,0 -15.79784,-4.40172 -15.79784,-10.54264 z"
           style="fill:#e6e6e6;stroke:#808080;stroke-width:3.06148148;stroke-miterlimit:4;stroke-dasharray:none;stroke-dashoffset:0" />
        <path
           sodipodi:nodetypes="csc"
           inkscape:connector-curvature="0"
           id="path2996"
           d="m 233.15555,528.33287 c 0,0 10.51382,2.10853 15.84706,2.10853 5.33322,0 15.84704,-2.10853 15.84704,-2.10853"
           style="fill:#e6e6e6;stroke:#808080;stroke-width:3.06148148;stroke-linecap:butt;stroke-linejoin:miter;stroke-miterlimit:4;stroke-dasharray:none;stroke-opacity:1" />
        <path
           id="path2998"
           d="m 249.0026,508.30351 0,21.79964"
           style="fill:#e6e6e6;stroke:#808080;stroke-width:3.06148148;stroke-linecap:butt;stroke-linejoin:miter;stroke-miterlimit:4;stroke-dasharray:none;stroke-opacity:1"
           inkscape:connector-curvature="0" />
        <path
           id="path3000"
           d="m 245.64818,515.79095 c 0,-1.45417 1.99095,-2.4965 3.35442,-2.4965 1.36348,0 3.35442,1.04233 3.35442,2.4965 l 0,6.68262 c 0,1.45417 -1.99094,2.4965 -3.35442,2.4965 -1.36347,0 -3.35442,-1.04233 -3.35442,-2.4965 z"
           style="fill:#e6e6e6;stroke:#808080;stroke-width:3.06148148;stroke-miterlimit:4;stroke-dasharray:none;stroke-dashoffset:0"
           inkscape:connector-curvature="0" />
      </g>
    </g>
    <rect
       style="color:#000000;clip-rule:nonzero;display:inline;overflow:visible;visibility:visible;opacity:1;isolation:auto;mix-blend-mode:normal;color-interpolation:sRGB;color-interpolation-filters:linearRGB;solid-color:#000000;solid-opacity:1;fill:none;fill-opacity:1;fill-rule:nonzero;stroke:#808080;stroke-width:1;stroke-linecap:butt;stroke-linejoin:miter;stroke-miterlimit:4;stroke-dasharray:none;stroke-dashoffset:0;stroke-opacity:1;color-rendering:auto;image-rendering:auto;shape-rendering:auto;text-rendering:auto;enable-background:accumulate"
       id="rect3367"
       width="58.999996"
       height="39"
       x="0.5"
       y="1012.8622" />
    <rect
       y="1012.8622"
       x="60.500004"
       height="39"
       width="58.999996"
       id="rect3349"
       style="color:#000000;clip-rule:nonzero;display:inline;overflow:visible;visibility:visible;opacity:1;isolation:auto;mix-blend-mode:normal;color-interpolation:sRGB;color-interpolation-filters:linearRGB;solid-color:#000000;solid-opacity:1;fill:none;fill-opacity:1;fill-rule:nonzero;stroke:#808080;stroke-width:1;stroke-linecap:butt;stroke-linejoin:miter;stroke-miterlimit:4;stroke-dasharray:none;stroke-dashoffset:0;stroke-opacity:1;color-rendering:auto;image-rendering:auto;shape-rendering:auto;text-rendering:auto;enable-background:accumulate" />
  </g>
</svg>
