<?xml version="1.0" encoding="UTF-8" standalone="no"?>
<svg
   xmlns:dc="http://purl.org/dc/elements/1.1/"
   xmlns:cc="http://creativecommons.org/ns#"
   xmlns:rdf="http://www.w3.org/1999/02/22-rdf-syntax-ns#"
   xmlns:svg="http://www.w3.org/2000/svg"
   xmlns="http://www.w3.org/2000/svg"
   xmlns:sodipodi="http://sodipodi.sourceforge.net/DTD/sodipodi-0.dtd"
   xmlns:inkscape="http://www.inkscape.org/namespaces/inkscape"
   version="1.1"
   x="0px"
   y="0px"
   viewBox="0 0 68 34"
   enable-background="new 0 0 100 100"
   xml:space="preserve"
   id="svg2"
   inkscape:version="0.91 r13725"
   sodipodi:docname="play.svg"
   width="68"
   height="34"><metadata
     id="metadata14"><rdf:RDF><cc:Work
         rdf:about=""><dc:format>image/svg+xml</dc:format><dc:type
           rdf:resource="http://purl.org/dc/dcmitype/StillImage" /><dc:title /></cc:Work></rdf:RDF></metadata><defs
     id="defs12" /><sodipodi:namedview
     pagecolor="#ffffff"
     bordercolor="#666666"
     borderopacity="1"
     objecttolerance="10"
     gridtolerance="10"
     guidetolerance="10"
     inkscape:pageopacity="0"
     inkscape:pageshadow="2"
     inkscape:window-width="1231"
     inkscape:window-height="776"
     id="namedview10"
     showgrid="false"
     inkscape:zoom="12.044118"
     inkscape:cx="34"
     inkscape:cy="17"
     inkscape:window-x="49"
     inkscape:window-y="24"
     inkscape:window-maximized="1"
     inkscape:current-layer="svg2" /><path
     d="M 17,0 C 7.6110741,0 0,7.611073 0,17 0,26.38893 7.6110741,34 17,34 26.388926,34 34,26.38893 34,17 34,7.611073 26.388926,0 17,0 Z m -4.636005,25.82962 c -2.7412339,-1.1589 -2.8036429,-15.886127 0,-17.640675 1.352843,-0.84686 12.932782,5.718278 12.932782,9.109273 0,3.246427 -11.278956,9.230532 -12.932782,8.531402 z"
     id="path4"
     inkscape:connector-curvature="0"
     style="fill:#000000" /><path
     style="fill:#000000"
     inkscape:connector-curvature="0"
     id="path3333"
     d="M 51,0 C 41.611074,0 34,7.611073 34,17 34,26.38893 41.611074,34 51,34 60.388926,34 68,26.38893 68,17 68,7.611073 60.388926,0 51,0 Z m -4.636005,25.82962 c -2.741234,-1.1589 -2.803643,-15.886127 0,-17.640675 1.352843,-0.84686 12.932782,5.718278 12.932782,9.109273 0,3.246427 -11.278956,9.230532 -12.932782,8.531402 z" /></svg>