<?xml version="1.0" encoding="UTF-8" standalone="no"?>
<svg
   xmlns:dc="http://purl.org/dc/elements/1.1/"
   xmlns:cc="http://creativecommons.org/ns#"
   xmlns:rdf="http://www.w3.org/1999/02/22-rdf-syntax-ns#"
   xmlns:svg="http://www.w3.org/2000/svg"
   xmlns="http://www.w3.org/2000/svg"
   xmlns:sodipodi="http://sodipodi.sourceforge.net/DTD/sodipodi-0.dtd"
   xmlns:inkscape="http://www.inkscape.org/namespaces/inkscape"
   version="1.1"
   x="0px"
   y="0px"
   viewBox="0 0 68 34"
   enable-background="new 0 0 100 100"
   xml:space="preserve"
   id="svg2"
   inkscape:version="0.91 r13725"
   sodipodi:docname="previous.svg"
   width="68"
   height="34"><metadata
     id="metadata14"><rdf:RDF><cc:Work
         rdf:about=""><dc:format>image/svg+xml</dc:format><dc:type
           rdf:resource="http://purl.org/dc/dcmitype/StillImage" /><dc:title /></cc:Work></rdf:RDF></metadata><defs
     id="defs12" /><sodipodi:namedview
     pagecolor="#ffffff"
     bordercolor="#666666"
     borderopacity="1"
     objecttolerance="10"
     gridtolerance="10"
     guidetolerance="10"
     inkscape:pageopacity="0"
     inkscape:pageshadow="2"
     inkscape:window-width="1231"
     inkscape:window-height="776"
     id="namedview10"
     showgrid="false"
     inkscape:zoom="1.888"
     inkscape:cx="-15.148305"
     inkscape:cy="62.5"
     inkscape:window-x="49"
     inkscape:window-y="24"
     inkscape:window-maximized="1"
     inkscape:current-layer="svg2" /><g
     id="g3342"
     transform="matrix(-0.39499059,0,0,0.39499059,36.621948,33.194614)"><path
       style="fill:#000000"
       inkscape:connector-curvature="0"
       id="path4"
       d="m 49.677,-84.039 c -23.77,0 -43.039,19.269 -43.039,43.039 0,23.77 19.269,43.039 43.039,43.039 23.77,0 43.039,-19.269 43.039,-43.039 0,-23.77 -19.269,-43.039 -43.039,-43.039 z m 12.128,58.389 c -0.999,0 -2.73,-2.653 -3.075,-12.312 -4.027,5.699 -18.875,13.258 -21.342,12.215 -4.739,-2.004 -4.847,-27.464 0,-30.497 2.015,-1.261 17.133,6.981 21.292,13.038 0.152,-10.383 1.712,-13.167 3.125,-13.167 1.851,0 3.755,2.901 3.755,15.609 0.001,12.47 -2.063,15.114 -3.755,15.114 z" /></g><g
     transform="matrix(-0.39499059,0,0,0.39499059,70.621948,33.194614)"
     id="g3334"><path
       d="m 49.677,-84.039 c -23.77,0 -43.039,19.269 -43.039,43.039 0,23.77 19.269,43.039 43.039,43.039 23.77,0 43.039,-19.269 43.039,-43.039 0,-23.77 -19.269,-43.039 -43.039,-43.039 z m 12.128,58.389 c -0.999,0 -2.73,-2.653 -3.075,-12.312 -4.027,5.699 -18.875,13.258 -21.342,12.215 -4.739,-2.004 -4.847,-27.464 0,-30.497 2.015,-1.261 17.133,6.981 21.292,13.038 0.152,-10.383 1.712,-13.167 3.125,-13.167 1.851,0 3.755,2.901 3.755,15.609 0.001,12.47 -2.063,15.114 -3.755,15.114 z"
       id="path3336"
       inkscape:connector-curvature="0"
       style="fill:#000000" /></g></svg>