<?xml version="1.0" encoding="UTF-8" standalone="no"?>
<!-- Created with Inkscape (http://www.inkscape.org/) -->

<svg
   xmlns:dc="http://purl.org/dc/elements/1.1/"
   xmlns:cc="http://creativecommons.org/ns#"
   xmlns:rdf="http://www.w3.org/1999/02/22-rdf-syntax-ns#"
   xmlns:svg="http://www.w3.org/2000/svg"
   xmlns="http://www.w3.org/2000/svg"
   xmlns:sodipodi="http://sodipodi.sourceforge.net/DTD/sodipodi-0.dtd"
   xmlns:inkscape="http://www.inkscape.org/namespaces/inkscape"
   width="120"
   height="40"
   id="svg3054"
   version="1.1"
   inkscape:version="0.91 r13725"
   sodipodi:docname="touch.svg"
   inkscape:export-filename="/home/mex/Development/xC/Mark_I/xc/images/touch.png"
   inkscape:export-xdpi="90"
   inkscape:export-ydpi="90">
  <defs
     id="defs3056" />
  <sodipodi:namedview
     id="base"
     pagecolor="#ffffff"
     bordercolor="#666666"
     borderopacity="1.0"
     inkscape:pageopacity="0.0"
     inkscape:pageshadow="2"
     inkscape:zoom="5.9267149"
     inkscape:cx="34.661441"
     inkscape:cy="-17.877938"
     inkscape:document-units="px"
     inkscape:current-layer="layer1"
     showgrid="false"
     inkscape:window-width="960"
     inkscape:window-height="1028"
     inkscape:window-x="1280"
     inkscape:window-y="24"
     inkscape:window-maximized="0" />
  <metadata
     id="metadata3059">
    <rdf:RDF>
      <cc:Work
         rdf:about="">
        <dc:format>image/svg+xml</dc:format>
        <dc:type
           rdf:resource="http://purl.org/dc/dcmitype/StillImage" />
        <dc:title></dc:title>
      </cc:Work>
    </rdf:RDF>
  </metadata>
  <g
     inkscape:label="Layer 1"
     inkscape:groupmode="layer"
     id="layer1"
     transform="translate(0,-1012.3622)">
    <g
       id="g3355"
       transform="translate(48.000002,-3.000017)">
      <g
         transform="matrix(1,0,0,1.0120704,0,-12.292039)"
         id="g3426">
        <path
           inkscape:connector-curvature="0"
           d="m 34.371226,1026.713 c -0.130466,-0.4592 -0.204208,-0.9426 -0.204208,-1.4435 0,-2.9126 2.353405,-5.2823 5.246029,-5.2823 2.892957,0 5.246696,2.3697 5.246696,5.2823 0,0.556 -0.08709,1.0915 -0.245918,1.5954 l 0,3.1233 c 1.150842,-1.2353 1.859901,-2.8918 1.859901,-4.7187 -3.34e-4,-3.8147 -3.071473,-6.9073 -6.861013,-6.9073 -3.78854,0 -6.860346,3.0926 -6.860346,6.9073 0,1.8047 0.692708,3.4424 1.818526,4.6729 l 0,-3.2294 z"
           id="path4"
           style="fill:#e6e6e6" />
        <path
           id="path3405"
           d="m 52.648909,1034.8323 c -0.601282,0 -1.168194,0.1445 -1.663034,0.4121 -0.634649,-0.7016 -1.573608,-1.1406 -2.609,-1.1406 -0.621969,0 -1.216577,0.1567 -1.732771,0.4405 -0.671019,-0.7136 -1.669707,-1.1689 -2.751813,-1.1689 -0.348022,0 -0.693042,0.046 -1.023713,0.1369 l 0,-7.4211 c 0,-1.8076 -1.55926,-3.2779 -3.475886,-3.2779 -1.916625,0 -3.476887,1.4703 -3.476887,3.2779 l 0,14.2382 -2.056102,-2.007 c -0.0043,-0.01 -0.0083,-0.01 -0.01368,-0.014 -0.656338,-0.6197 -1.516884,-0.9609 -2.422476,-0.9609 -0.905926,0 -1.766139,0.3412 -2.42281,0.9606 -0.659006,0.6215 -1.014036,1.4501 -1.000356,2.3344 0.01368,0.8672 0.382391,1.6846 1.036059,2.3007 l 6.560038,6.2568 c 1.122815,1.0707 3.173578,1.8785 4.770543,1.8785 l 12.157094,0 c 1.916959,0 3.475885,-1.4704 3.475885,-3.2777 l 0,-9.6908 c 0,-1.8386 -1.471837,-3.2784 -3.351091,-3.2784 z m 1.806513,12.9697 c -4.128556,6.9922 -2.064278,3.4961 0,0 z"
           inkscape:connector-curvature="0"
           sodipodi:nodetypes="ccscscssscccsccccsssscccc"
           style="fill:#e6e6e6" />
        <path
           inkscape:connector-curvature="0"
           d="m 52.648908,1034.6101 c -0.601281,0 -1.168193,0.1542 -1.663033,0.4401 -0.634649,-0.7492 -1.573608,-1.2178 -2.609,-1.2178 -0.621969,0 -1.216577,0.1672 -1.732771,0.4703 -0.671019,-0.7619 -1.669707,-1.248 -2.751813,-1.248 -0.348022,0 -0.693042,0.05 -1.023713,0.1461 l 0,-7.9232 c 0,-1.93 -1.55926,-3.4999 -3.475886,-3.4999 -1.916625,0 -3.476887,1.5699 -3.476887,3.4999 l 0,15.2017 -2.056102,-2.1429 c -0.0043,-0.01 -0.0083,-0.01 -0.01368,-0.014 -0.656338,-0.6615 -1.516884,-1.026 -2.422476,-1.026 -0.905926,0 -1.766139,0.3645 -2.42281,1.0257 -0.659006,0.6635 -1.014036,1.5483 -1.000356,2.4923 0.01368,0.926 0.382391,1.7987 1.036059,2.4565 l 6.560038,6.6802 c 1.122815,1.1432 3.173578,2.0056 4.770543,2.0056 l 12.157093,0 c 1.91696,0 3.475886,-1.5699 3.475886,-3.4996 l 0,-10.3466 c 0,-1.963 -1.471837,-3.5002 -3.351092,-3.5002 z m -0.124794,15.791 -12.157427,0 c -1.168861,0 -2.850246,-0.7069 -3.672086,-1.544 l -6.566044,-6.6863 c -0.368377,-0.3709 -0.575589,-0.8606 -0.58293,-1.3801 -0.008,-0.519 0.186858,-1.0054 0.547894,-1.3689 0.36504,-0.3675 0.837523,-0.5698 1.330026,-0.5698 0.492503,0 0.965654,0.2026 1.325021,0.5651 l 4.048471,4.2191 c 0.109445,0.1139 0.27695,0.1504 0.422432,0.091 0.14615,-0.059 0.241581,-0.2023 0.241581,-0.3605 l 0,-18.0888 c 0,-1.072 0.866885,-1.9444 1.93164,-1.9444 1.064421,0 1.930974,0.8724 1.930974,1.9444 l 0,10.1868 c 0,0.179 0.121124,0.3349 0.293634,0.3776 0.173177,0.043 0.352026,-0.039 0.434777,-0.1962 0.313321,-0.6 1.087778,-1.0357 1.840548,-1.0357 1.020042,0 1.939649,0.769 2.050763,1.7143 0.02002,0.1703 0.147818,0.3074 0.315656,0.3373 0.168172,0.031 0.334676,-0.054 0.412088,-0.207 0.331672,-0.6578 0.98534,-1.0669 1.705743,-1.0669 0.975665,0 1.768474,0.7209 1.884593,1.7143 0.02035,0.1703 0.148485,0.3074 0.31599,0.3376 0.168172,0.03 0.335009,-0.054 0.411754,-0.2069 0.341683,-0.6779 0.946634,-1.067 1.659696,-1.067 1.02972,0 1.806514,0.8359 1.806514,1.9448 l 0,10.3467 c 0,1.0713 -0.866219,1.9438 -1.931308,1.9438 z"
           id="path6"
           style="fill:#808080" />
      </g>
    </g>
    <g
       id="g3349"
       transform="translate(15.999998,-3.000017)">
      <g
         id="g3431"
         transform="matrix(1,0,0,1.0120704,-28,-12.292039)">
        <path
           style="fill:#808080"
           id="path3433"
           d="m 34.371226,1026.713 c -0.130466,-0.4592 -0.204208,-0.9426 -0.204208,-1.4435 0,-2.9126 2.353405,-5.2823 5.246029,-5.2823 2.892957,0 5.246696,2.3697 5.246696,5.2823 0,0.556 -0.08709,1.0915 -0.245918,1.5954 l 0,3.1233 c 1.150842,-1.2353 1.859901,-2.8918 1.859901,-4.7187 -3.34e-4,-3.8147 -3.071473,-6.9073 -6.861013,-6.9073 -3.78854,0 -6.860346,3.0926 -6.860346,6.9073 0,1.8047 0.692708,3.4424 1.818526,4.6729 l 0,-3.2294 z"
           inkscape:connector-curvature="0" />
        <path
           style="fill:#1a1a1a"
           sodipodi:nodetypes="ccscscssscccsccccsssscccc"
           inkscape:connector-curvature="0"
           d="m 52.648909,1034.8323 c -0.601282,0 -1.168194,0.1445 -1.663034,0.4121 -0.634649,-0.7016 -1.573608,-1.1406 -2.609,-1.1406 -0.621969,0 -1.216577,0.1567 -1.732771,0.4405 -0.671019,-0.7136 -1.669707,-1.1689 -2.751813,-1.1689 -0.348022,0 -0.693042,0.046 -1.023713,0.1369 l 0,-7.4211 c 0,-1.8076 -1.55926,-3.2779 -3.475886,-3.2779 -1.916625,0 -3.476887,1.4703 -3.476887,3.2779 l 0,14.2382 -2.056102,-2.007 c -0.0043,-0.01 -0.0083,-0.01 -0.01368,-0.014 -0.656338,-0.6197 -1.516884,-0.9609 -2.422476,-0.9609 -0.905926,0 -1.766139,0.3412 -2.42281,0.9606 -0.659006,0.6215 -1.014036,1.4501 -1.000356,2.3344 0.01368,0.8672 0.382391,1.6846 1.036059,2.3007 l 6.560038,6.2568 c 1.122815,1.0707 3.173578,1.8785 4.770543,1.8785 l 12.157094,0 c 1.916959,0 3.475885,-1.4704 3.475885,-3.2777 l 0,-9.6908 c 0,-1.8386 -1.471837,-3.2784 -3.351091,-3.2784 z m 1.806513,12.9697 c -4.128556,6.9922 -2.064278,3.4961 0,0 z"
           id="path3435" />
        <path
           style="fill:#808080"
           id="path3437"
           d="m 52.648908,1034.6101 c -0.601281,0 -1.168193,0.1542 -1.663033,0.4401 -0.634649,-0.7492 -1.573608,-1.2178 -2.609,-1.2178 -0.621969,0 -1.216577,0.1672 -1.732771,0.4703 -0.671019,-0.7619 -1.669707,-1.248 -2.751813,-1.248 -0.348022,0 -0.693042,0.05 -1.023713,0.1461 l 0,-7.9232 c 0,-1.93 -1.55926,-3.4999 -3.475886,-3.4999 -1.916625,0 -3.476887,1.5699 -3.476887,3.4999 l 0,15.2017 -2.056102,-2.1429 c -0.0043,-0.01 -0.0083,-0.01 -0.01368,-0.014 -0.656338,-0.6615 -1.516884,-1.026 -2.422476,-1.026 -0.905926,0 -1.766139,0.3645 -2.42281,1.0257 -0.659006,0.6635 -1.014036,1.5483 -1.000356,2.4923 0.01368,0.926 0.382391,1.7987 1.036059,2.4565 l 6.560038,6.6802 c 1.122815,1.1432 3.173578,2.0056 4.770543,2.0056 l 12.157093,0 c 1.91696,0 3.475886,-1.5699 3.475886,-3.4996 l 0,-10.3466 c 0,-1.963 -1.471837,-3.5002 -3.351092,-3.5002 z m -0.124794,15.791 -12.157427,0 c -1.168861,0 -2.850246,-0.7069 -3.672086,-1.544 l -6.566044,-6.6863 c -0.368377,-0.3709 -0.575589,-0.8606 -0.58293,-1.3801 -0.008,-0.519 0.186858,-1.0054 0.547894,-1.3689 0.36504,-0.3675 0.837523,-0.5698 1.330026,-0.5698 0.492503,0 0.965654,0.2026 1.325021,0.5651 l 4.048471,4.2191 c 0.109445,0.1139 0.27695,0.1504 0.422432,0.091 0.14615,-0.059 0.241581,-0.2023 0.241581,-0.3605 l 0,-18.0888 c 0,-1.072 0.866885,-1.9444 1.93164,-1.9444 1.064421,0 1.930974,0.8724 1.930974,1.9444 l 0,10.1868 c 0,0.179 0.121124,0.3349 0.293634,0.3776 0.173177,0.043 0.352026,-0.039 0.434777,-0.1962 0.313321,-0.6 1.087778,-1.0357 1.840548,-1.0357 1.020042,0 1.939649,0.769 2.050763,1.7143 0.02002,0.1703 0.147818,0.3074 0.315656,0.3373 0.168172,0.031 0.334676,-0.054 0.412088,-0.207 0.331672,-0.6578 0.98534,-1.0669 1.705743,-1.0669 0.975665,0 1.768474,0.7209 1.884593,1.7143 0.02035,0.1703 0.148485,0.3074 0.31599,0.3376 0.168172,0.03 0.335009,-0.054 0.411754,-0.2069 0.341683,-0.6779 0.946634,-1.067 1.659696,-1.067 1.02972,0 1.806514,0.8359 1.806514,1.9448 l 0,10.3467 c 0,1.0713 -0.866219,1.9438 -1.931308,1.9438 z"
           inkscape:connector-curvature="0" />
      </g>
    </g>
    <rect
       style="color:#000000;clip-rule:nonzero;display:inline;overflow:visible;visibility:visible;opacity:1;isolation:auto;mix-blend-mode:normal;color-interpolation:sRGB;color-interpolation-filters:linearRGB;solid-color:#000000;solid-opacity:1;fill:none;fill-opacity:1;fill-rule:nonzero;stroke:#808080;stroke-width:1;stroke-linecap:butt;stroke-linejoin:miter;stroke-miterlimit:4;stroke-dasharray:none;stroke-dashoffset:0;stroke-opacity:1;color-rendering:auto;image-rendering:auto;shape-rendering:auto;text-rendering:auto;enable-background:accumulate"
       id="rect3367"
       width="58.999996"
       height="39"
       x="0.5"
       y="1012.8622" />
    <rect
       y="1012.8622"
       x="60.500004"
       height="39"
       width="58.999996"
       id="rect3347"
       style="color:#000000;clip-rule:nonzero;display:inline;overflow:visible;visibility:visible;opacity:1;isolation:auto;mix-blend-mode:normal;color-interpolation:sRGB;color-interpolation-filters:linearRGB;solid-color:#000000;solid-opacity:1;fill:none;fill-opacity:1;fill-rule:nonzero;stroke:#808080;stroke-width:1;stroke-linecap:butt;stroke-linejoin:miter;stroke-miterlimit:4;stroke-dasharray:none;stroke-dashoffset:0;stroke-opacity:1;color-rendering:auto;image-rendering:auto;shape-rendering:auto;text-rendering:auto;enable-background:accumulate" />
  </g>
</svg>
