<?xml version="1.0" encoding="UTF-8" standalone="no"?>
<!-- Created with Inkscape (http://www.inkscape.org/) -->

<svg
   xmlns:dc="http://purl.org/dc/elements/1.1/"
   xmlns:cc="http://creativecommons.org/ns#"
   xmlns:rdf="http://www.w3.org/1999/02/22-rdf-syntax-ns#"
   xmlns:svg="http://www.w3.org/2000/svg"
   xmlns="http://www.w3.org/2000/svg"
   xmlns:sodipodi="http://sodipodi.sourceforge.net/DTD/sodipodi-0.dtd"
   xmlns:inkscape="http://www.inkscape.org/namespaces/inkscape"
   width="120"
   height="40"
   viewBox="0 0 120 39.999999"
   id="svg2"
   version="1.1"
   inkscape:version="0.91 r13725"
   sodipodi:docname="voice.svg"
   inkscape:export-filename="/home/mex/Development/xC/Mark_I/xc/images/voice.png"
   inkscape:export-xdpi="90"
   inkscape:export-ydpi="90">
  <defs
     id="defs4" />
  <sodipodi:namedview
     id="base"
     pagecolor="#ffffff"
     bordercolor="#666666"
     borderopacity="1.0"
     inkscape:pageopacity="0.0"
     inkscape:pageshadow="2"
     inkscape:zoom="5.3189314"
     inkscape:cx="45.134074"
     inkscape:cy="-7.230879"
     inkscape:document-units="px"
     inkscape:current-layer="layer1"
     showgrid="false"
     units="px"
     inkscape:window-width="960"
     inkscape:window-height="1028"
     inkscape:window-x="1280"
     inkscape:window-y="24"
     inkscape:window-maximized="0" />
  <metadata
     id="metadata7">
    <rdf:RDF>
      <cc:Work
         rdf:about="">
        <dc:format>image/svg+xml</dc:format>
        <dc:type
           rdf:resource="http://purl.org/dc/dcmitype/StillImage" />
        <dc:title></dc:title>
      </cc:Work>
    </rdf:RDF>
  </metadata>
  <g
     inkscape:label="Layer 1"
     inkscape:groupmode="layer"
     id="layer1"
     transform="translate(0,-1012.3622)">
    <g
       id="g3362"
       transform="translate(37.499994,-3.0000133)">
      <g
         id="g4389">
        <path
           style="fill:#e6e6e6;fill-opacity:1;stroke:none;stroke-width:0.42345211;stroke-miterlimit:4;stroke-dasharray:none;stroke-opacity:1"
           inkscape:connector-curvature="0"
           d="m 58.074222,1018.5936 -10.852793,0 c -6.313062,0 -11.455725,5.5122 -11.455725,12.2883 0,5.7581 3.68853,10.7085 8.86666,12.0075 l 0,7.7592 c 0,0.281 0.141867,0.5267 0.390133,0.632 0.1064,0.035 0.177334,0.07 0.283733,0.07 0.177334,0 0.3192,-0.07 0.461066,-0.1755 l 9.150394,-7.9699 3.156532,0 c 6.313062,0 11.420259,-5.5122 11.420259,-12.3235 0,-6.8112 -5.107197,-12.2883 -11.420259,-12.2883 z"
           id="path4377"
           sodipodi:nodetypes="ssscscsccsss" />
        <g
           transform="matrix(0.36344741,0,0,0.35978866,-48.589048,836.89165)"
           id="g4360"
           style="fill:#808080;fill-opacity:1;stroke:#808080;stroke-opacity:1">
          <path
             style="fill:#808080;fill-opacity:1;stroke:#808080;stroke-width:1.20000005;stroke-miterlimit:4;stroke-dasharray:none;stroke-opacity:1"
             inkscape:connector-curvature="0"
             d="m 293.48943,504.98091 -30.6,0 c -17.8,0 -32.3,15.7 -32.3,35 0,16.4 10.4,30.5 25,34.2 l 0,22.1 c 0,0.8 0.4,1.5 1.1,1.8 0.3,0.1 0.5,0.2 0.8,0.2 0.5,0 0.9,-0.2 1.3,-0.5 l 25.8,-22.7 8.9,0 c 17.8,0 32.2,-15.7 32.2,-35.1 0,-19.4 -14.4,-35 -32.2,-35 z m 0,66.2 -9.7,0 c -0.5,0 -0.9,0.2 -1.3,0.5 l -23,20.3 0,-19.4 c 0,-0.9 -0.7,-1.7 -1.6,-1.9 -13.5,-2.6 -23.4,-15.5 -23.4,-30.7 0,-17.1 12.7,-31.1 28.4,-31.1 l 30.7,0 c 15.6,0 28.3,14 28.3,31.2 0,17.1 -12.7,31.1 -28.4,31.1 z"
             id="path4362" />
          <g
             id="g4364"
             transform="matrix(0.80709227,0,0,0.80709227,237.94023,498.83079)"
             style="fill:#808080;fill-opacity:1;stroke:#808080;stroke-opacity:1">
            <g
               id="g4366"
               style="fill:#808080;fill-opacity:1;stroke:#808080;stroke-opacity:1">
              <path
                 inkscape:connector-curvature="0"
                 d="m 11.66,39.3 c -1.591,0 -2.88,1.29 -2.88,2.88 l 0,18 c 0,1.592 1.289,2.881 2.88,2.881 1.591,0 2.88,-1.289 2.88,-2.881 l 0,-18 c 0,-1.59 -1.289,-2.88 -2.88,-2.88 z m 8.64,-4.32 c -1.591,0 -2.88,1.289 -2.88,2.88 l 0,26.64 c 0,1.591 1.289,2.88 2.88,2.88 1.591,0 2.88,-1.289 2.88,-2.88 l 0,-26.64 c 0,-1.59 -1.289,-2.88 -2.88,-2.88 z m 8.64,-12.96 c -1.591,0 -2.881,1.29 -2.881,2.881 l 0,51.84 c 0,1.591 1.29,2.88 2.881,2.88 1.59,0 2.88,-1.289 2.88,-2.88 l 0,-51.841 c 0,-1.59 -1.29,-2.88 -2.88,-2.88 z m 8.64,10.8 c -1.591,0 -2.88,1.289 -2.88,2.88 l 0,30.239 c 0,1.591 1.289,2.881 2.88,2.881 1.591,0 2.88,-1.29 2.88,-2.881 l 0,-30.239 c 0,-1.591 -1.289,-2.88 -2.88,-2.88 z m 8.64,8.64 c -1.591,0 -2.88,1.289 -2.88,2.88 l 0,12.96 c 0,1.591 1.289,2.88 2.88,2.88 1.591,0 2.88,-1.289 2.88,-2.88 l 0,-12.96 c 0,-1.591 -1.289,-2.88 -2.88,-2.88 z m 8.639,2.84 c -1.59,0 -2.879,1.29 -2.879,2.88 l 0,8 c 0,1.592 1.289,2.881 2.879,2.881 1.591,0 2.881,-1.289 2.881,-2.881 l 0,-8 c 0,-1.59 -1.29,-2.88 -2.881,-2.88 z M 63.5,39.98 c -1.591,0 -2.88,1.289 -2.88,2.88 l 0,16.64 c 0,1.591 1.289,2.88 2.88,2.88 1.591,0 2.88,-1.289 2.88,-2.88 l 0,-16.64 c 0,-1.59 -1.289,-2.88 -2.88,-2.88 z m 8.641,-7.96 c -1.591,0 -2.881,1.29 -2.881,2.881 l 0,31.84 c 0,1.591 1.29,2.88 2.881,2.88 1.59,0 2.879,-1.289 2.879,-2.88 l 0,-31.841 c 0,-1.59 -1.29,-2.88 -2.879,-2.88 z m 8.638,6.8 c -1.59,0 -2.879,1.289 -2.879,2.88 l 0,19.239 c 0,1.591 1.289,2.881 2.879,2.881 1.592,0 2.881,-1.29 2.881,-2.881 l 0,-19.239 c 0,-1.591 -1.289,-2.88 -2.881,-2.88 z m 8.641,2.64 c -1.591,0 -2.88,1.289 -2.88,2.88 l 0,12.96 c 0,1.591 1.289,2.88 2.88,2.88 1.592,0 2.88,-1.289 2.88,-2.88 l 0,-12.96 c 0,-1.591 -1.288,-2.88 -2.88,-2.88 z"
                 id="path4368"
                 style="fill:#808080;fill-opacity:1;stroke:#808080;stroke-opacity:1" />
            </g>
          </g>
        </g>
      </g>
    </g>
    <g
       id="g3354"
       transform="translate(12.500006,-3.0000133)">
      <path
         style="fill:#1a1a1a;fill-opacity:1;stroke:none;stroke-width:0.42345211;stroke-miterlimit:4;stroke-dasharray:none;stroke-opacity:1"
         inkscape:connector-curvature="0"
         d="m 23.074207,1018.5936 -10.852793,0 c -6.313062,0 -11.455725,5.5122 -11.455725,12.2883 0,5.7581 3.68853,10.7085 8.86666,12.0075 l 0,7.7592 c 0,0.281 0.141867,0.5267 0.390133,0.632 0.1064,0.035 0.177334,0.07 0.283733,0.07 0.177334,0 0.3192,-0.07 0.461066,-0.1755 l 9.150394,-7.9699 3.156532,0 c 6.313062,0 11.420259,-5.5122 11.420259,-12.3235 0,-6.8112 -5.107197,-12.2883 -11.420259,-12.2883 z"
         id="path4399"
         sodipodi:nodetypes="ssscscsccsss" />
      <g
         transform="matrix(0.36344741,0,0,0.35978866,-83.589063,836.89165)"
         id="g4401"
         style="fill:#808080;fill-opacity:1;stroke:#808080;stroke-opacity:1">
        <path
           style="fill:#808080;fill-opacity:1;stroke:#808080;stroke-width:1.20000005;stroke-miterlimit:4;stroke-dasharray:none;stroke-opacity:1"
           inkscape:connector-curvature="0"
           d="m 293.48943,504.98091 -30.6,0 c -17.8,0 -32.3,15.7 -32.3,35 0,16.4 10.4,30.5 25,34.2 l 0,22.1 c 0,0.8 0.4,1.5 1.1,1.8 0.3,0.1 0.5,0.2 0.8,0.2 0.5,0 0.9,-0.2 1.3,-0.5 l 25.8,-22.7 8.9,0 c 17.8,0 32.2,-15.7 32.2,-35.1 0,-19.4 -14.4,-35 -32.2,-35 z m 0,66.2 -9.7,0 c -0.5,0 -0.9,0.2 -1.3,0.5 l -23,20.3 0,-19.4 c 0,-0.9 -0.7,-1.7 -1.6,-1.9 -13.5,-2.6 -23.4,-15.5 -23.4,-30.7 0,-17.1 12.7,-31.1 28.4,-31.1 l 30.7,0 c 15.6,0 28.3,14 28.3,31.2 0,17.1 -12.7,31.1 -28.4,31.1 z"
           id="path4403" />
        <g
           id="g4405"
           transform="matrix(0.80709227,0,0,0.80709227,237.94023,498.83079)"
           style="fill:#808080;fill-opacity:1;stroke:#808080;stroke-opacity:1">
          <g
             id="g4407"
             style="fill:#808080;fill-opacity:1;stroke:#808080;stroke-opacity:1">
            <path
               inkscape:connector-curvature="0"
               d="m 11.66,39.3 c -1.591,0 -2.88,1.29 -2.88,2.88 l 0,18 c 0,1.592 1.289,2.881 2.88,2.881 1.591,0 2.88,-1.289 2.88,-2.881 l 0,-18 c 0,-1.59 -1.289,-2.88 -2.88,-2.88 z m 8.64,-4.32 c -1.591,0 -2.88,1.289 -2.88,2.88 l 0,26.64 c 0,1.591 1.289,2.88 2.88,2.88 1.591,0 2.88,-1.289 2.88,-2.88 l 0,-26.64 c 0,-1.59 -1.289,-2.88 -2.88,-2.88 z m 8.64,-12.96 c -1.591,0 -2.881,1.29 -2.881,2.881 l 0,51.84 c 0,1.591 1.29,2.88 2.881,2.88 1.59,0 2.88,-1.289 2.88,-2.88 l 0,-51.841 c 0,-1.59 -1.29,-2.88 -2.88,-2.88 z m 8.64,10.8 c -1.591,0 -2.88,1.289 -2.88,2.88 l 0,30.239 c 0,1.591 1.289,2.881 2.88,2.881 1.591,0 2.88,-1.29 2.88,-2.881 l 0,-30.239 c 0,-1.591 -1.289,-2.88 -2.88,-2.88 z m 8.64,8.64 c -1.591,0 -2.88,1.289 -2.88,2.88 l 0,12.96 c 0,1.591 1.289,2.88 2.88,2.88 1.591,0 2.88,-1.289 2.88,-2.88 l 0,-12.96 c 0,-1.591 -1.289,-2.88 -2.88,-2.88 z m 8.639,2.84 c -1.59,0 -2.879,1.29 -2.879,2.88 l 0,8 c 0,1.592 1.289,2.881 2.879,2.881 1.591,0 2.881,-1.289 2.881,-2.881 l 0,-8 c 0,-1.59 -1.29,-2.88 -2.881,-2.88 z M 63.5,39.98 c -1.591,0 -2.88,1.289 -2.88,2.88 l 0,16.64 c 0,1.591 1.289,2.88 2.88,2.88 1.591,0 2.88,-1.289 2.88,-2.88 l 0,-16.64 c 0,-1.59 -1.289,-2.88 -2.88,-2.88 z m 8.641,-7.96 c -1.591,0 -2.881,1.29 -2.881,2.881 l 0,31.84 c 0,1.591 1.29,2.88 2.881,2.88 1.59,0 2.879,-1.289 2.879,-2.88 l 0,-31.841 c 0,-1.59 -1.29,-2.88 -2.879,-2.88 z m 8.638,6.8 c -1.59,0 -2.879,1.289 -2.879,2.88 l 0,19.239 c 0,1.591 1.289,2.881 2.879,2.881 1.592,0 2.881,-1.29 2.881,-2.881 l 0,-19.239 c 0,-1.591 -1.289,-2.88 -2.881,-2.88 z m 8.641,2.64 c -1.591,0 -2.88,1.289 -2.88,2.88 l 0,12.96 c 0,1.591 1.289,2.88 2.88,2.88 1.592,0 2.88,-1.289 2.88,-2.88 l 0,-12.96 c 0,-1.591 -1.288,-2.88 -2.88,-2.88 z"
               id="path4409"
               style="fill:#808080;fill-opacity:1;stroke:#808080;stroke-opacity:1" />
          </g>
        </g>
      </g>
    </g>
    <rect
       style="color:#000000;clip-rule:nonzero;display:inline;overflow:visible;visibility:visible;opacity:1;isolation:auto;mix-blend-mode:normal;color-interpolation:sRGB;color-interpolation-filters:linearRGB;solid-color:#000000;solid-opacity:1;fill:none;fill-opacity:1;fill-rule:nonzero;stroke:#808080;stroke-width:1;stroke-linecap:butt;stroke-linejoin:miter;stroke-miterlimit:4;stroke-dasharray:none;stroke-dashoffset:0;stroke-opacity:1;color-rendering:auto;image-rendering:auto;shape-rendering:auto;text-rendering:auto;enable-background:accumulate"
       id="rect3367"
       width="58.999996"
       height="39"
       x="0.5"
       y="1012.8622" />
    <rect
       y="1012.8622"
       x="60.500004"
       height="39"
       width="58.999996"
       id="rect3352"
       style="color:#000000;clip-rule:nonzero;display:inline;overflow:visible;visibility:visible;opacity:1;isolation:auto;mix-blend-mode:normal;color-interpolation:sRGB;color-interpolation-filters:linearRGB;solid-color:#000000;solid-opacity:1;fill:none;fill-opacity:1;fill-rule:nonzero;stroke:#808080;stroke-width:1;stroke-linecap:butt;stroke-linejoin:miter;stroke-miterlimit:4;stroke-dasharray:none;stroke-dashoffset:0;stroke-opacity:1;color-rendering:auto;image-rendering:auto;shape-rendering:auto;text-rendering:auto;enable-background:accumulate" />
  </g>
</svg>
